<svg width="51" height="51" fill="none" xmlns="http://www.w3.org/2000/svg"><path d="M17 17v-2.125a8.5 8.5 0 0 1 8.5-8.5v0a8.5 8.5 0 0 1 8.5 8.5V17m-2.125 12.75V25.5m-12.75 4.25V25.5" stroke="#FBF5EC" stroke-width="2" stroke-linecap="round"/><path d="M8.5 21c0-1.886 0-2.828.586-3.414C9.672 17 10.614 17 12.5 17h26c1.886 0 2.828 0 3.414.586.586.586.586 1.528.586 3.414v15.625c0 3.771 0 5.657-1.172 6.828-1.171 1.172-3.057 1.172-6.828 1.172h-18c-3.771 0-5.657 0-6.828-1.172C8.5 42.282 8.5 40.396 8.5 36.625V21Z" stroke="#FBF5EC" stroke-width="2"/></svg>