<svg width="25" height="41" fill="none" xmlns="http://www.w3.org/2000/svg"><path d="M24.054 1.68c0-.291-.115-.57-.319-.776a1.086 1.086 0 0 0-.77-.321h-5.45a10.355 10.355 0 0 0-7.472 2.674 10.494 10.494 0 0 0-3.426 7.2v5.924h-5.45a1.09 1.09 0 0 0-.77.321 1.1 1.1 0 0 0-.319.776v5.705c0 .291.115.57.32.776.204.206.48.321.77.321h5.449v14.701a1.1 1.1 0 0 0 1.09 1.098h6.539a1.1 1.1 0 0 0 1.09-1.098v-14.7h5.71a1.085 1.085 0 0 0 1.068-.813l1.57-5.705a1.104 1.104 0 0 0-.566-1.267 1.083 1.083 0 0 0-.48-.115h-7.302v-5.924a2.199 2.199 0 0 1 .71-1.412 2.171 2.171 0 0 1 1.47-.563h5.448c.29 0 .567-.116.771-.321.204-.206.32-.485.32-.776V1.68Z" fill="#FBF5EC"/></svg>