<svg xmlns="http://www.w3.org/2000/svg" width="13.87" height="15.71"><svg id="SvgjsSvg1000" xmlns="http://www.w3.org/2000/svg" width="13.87" height="15.71" viewBox="0 0 13.87 15.71"><defs><style>.cls-1{fill:#fff}.cls-7{fill:#1d1d1b}@media (prefers-color-scheme:light){:root{filter:none}}</style></defs><rect x="8.32" y="3.2" width="5.55" height="8.61" rx=".69" ry=".69" style="fill:#31271b"/><rect class="cls-1" x="9.15" y="9.95" width="1.01" height="1.34" rx=".23" ry=".23"/><rect class="cls-1" x="12.31" y="9.95" width="1.01" height="1.34" rx=".23" ry=".23"/><rect class="cls-1" x="10.74" y="9.95" width="1.01" height="1.34" rx=".23" ry=".23"/><rect class="cls-1" x="9.15" y="3.63" width="1.01" height="1.34" rx=".23" ry=".23"/><rect class="cls-7" x="1.49" width="6.47" height="4.2" rx=".72" ry=".72"/><rect class="cls-7" y="2.02" width="9.61" height="13.69" rx=".82" ry=".82"/><path style="fill:#f1d7bd" d="M0 3.01h9.62v11.75H0z"/><path style="fill:#79afa4" d="M2.28 3.01h1.86v11.75H2.28z"/><path style="fill:#913728" d="M4.1 3.01h1.86v11.76H4.1z"/><path style="fill:#f3de5d" d="M.61 3.01h1.68v11.75H.61z"/><rect class="cls-1" x="12.31" y="3.63" width="1.01" height="1.34" rx=".23" ry=".23"/><rect class="cls-1" x="10.74" y="3.63" width="1.01" height="1.34" rx=".23" ry=".23"/></svg></svg>