<svg width="39" height="39" fill="none" xmlns="http://www.w3.org/2000/svg"><g clip-path="url(#a)"><path d="M6.79.135C3.53.63.642 3.343.18 6.652-.18 9.263.135 12.133.135 14.78v8.587c-.01 2.758-.135 5.55-.01 8.307.078 1.778.901 3.478 2.12 4.772 3.169 3.365 8.244 2.443 12.417 2.443 5.537 0 11.131.236 16.658 0 3.417-.147 6.552-2.578 7.184-6 .406-2.228.169-4.66.203-6.922l.135-8.43.135-8.43c.034-1.992.158-3.906-.902-5.695C35.583-.833 30.192.079 26.053.079H7.162c-1.805 0-1.805 2.791 0 2.791h21.383c1.399 0 2.944-.191 4.33.08 4.467.854 3.306 6.246 3.25 9.521-.08 4.772-.148 9.556-.227 14.328-.033 1.88.305 4.142-.236 5.954-.474 1.599-1.748 2.69-3.316 3.152-1.252.36-3.011.18-4.635.18H9.947c-1.15 0-2.413.158-3.507-.203a5.21 5.21 0 0 1-3.203-2.96c-.666-1.632-.305-3.68-.305-5.414V11.447c0-2.195-.44-4.727.982-6.585.88-1.159 2.21-1.823 3.631-2.037 1.77-.27 1.015-2.96-.744-2.69h-.012Z" fill="#FBF5EC"/><path d="M19.613 27.88c4.59 0 8.312-3.654 8.312-8.16 0-4.507-3.722-8.16-8.312-8.16S11.3 15.211 11.3 19.72c0 4.506 3.721 8.16 8.312 8.16Z" stroke="#FBF5EC" stroke-width="2.58" stroke-miterlimit="10"/><path d="M30.755 11.206c1.423-.094 2.496-1.392 2.396-2.9-.1-1.506-1.336-2.652-2.759-2.558-1.423.094-2.496 1.392-2.396 2.9.1 1.507 1.335 2.652 2.759 2.558Z" fill="#FBF5EC"/></g><defs><clipPath id="a"><path fill="#fff" d="M0 0h39v39H0z"/></clipPath></defs></svg>