<svg width="1512" height="762" fill="none" xmlns="http://www.w3.org/2000/svg"><g opacity=".4" clip-path="url(#a)"><path d="M253.996 514.315c-55.531 0-134.041-10.511-134.041-10.511a2278.28 2278.28 0 0 1-139.937-23.287v-44.355a1127.219 1127.219 0 0 0 147.517 34.51c74.125 12.157 138.902 22.238 216.835 8.501 32.188-5.672 75.828-13.804 110.771-41.667 25.944-20.686 35.071-42.662 43.026-61.829 11.737-28.273 13.165-59.947 16.021-123.301.696-15.478.677-22.064 2.289-34.732 1.821-14.241 5.611-43.959 18.529-71.379 6.362-13.501 26.969-55.47 82.162-86.452 51.22-28.75 105.259-32.91 135.488-34.947C839.057 19.039 907.808 41.15 974.197 62.5c72.563 23.334 80.823 36.217 155.953 55.296 63.14 16.035 110.47 20.431 120.52 21.318 60.87 5.383 124.2 10.974 185.83-14.113 17.71-7.211 51.82-21.553 72.44-52.26 21.12-31.458 15.59-61.452 12.7-72.742 21.06.161 42.1.323 63.16.49 3.74 39.39-12.43 66.675-21.05 78.812-32.22 45.404-90.15 64.188-122.17 74.578-37.98 12.312-69.77 15.437-90.09 17.937-70.46 8.676-124.84-.625-177.42-9.617-54.63-9.342-81.77-18.972-116.13-31.163-27.94-9.913-59.603-21.143-116.132-35.908-151.747-39.618-199.863-30.081-217.98-26.492-44.665 8.85-76.862 26.996-85.669 32.339-14.857 9.026-42.596 28.717-61.509 59.208-12.56 20.255-13.155 32.292-14.446 58.663-.806 16.344-1.895 38.724-6.509 70.559-7.315 50.518-11.736 81.016-34.055 116.204-11.846 18.67-33.881 53.429-83.984 78.1-38.047 18.736-73.155 22.507-113.801 26.868a651.856 651.856 0 0 1-69.886 3.737h.027Z" fill="#F2E291"/><path d="M65.403 589.376c-12.377 0-29.414.531-52.337-.51a731.154 731.154 0 0 1-32.124-2.164c-.302-35.397-.613-70.788-.915-106.185 25.376 5.404 60.356 12.158 102.531 18.146 47.165 6.693 92.7 13.158 151.966 13.441 56.649.269 108.61.51 167.529-19.49 18.685-6.344 54.534-18.858 86.054-46.371 22.437-19.591 32.709-38.072 40.344-52.138 17.87-32.924 21.064-60.7 25.569-103.778 4.229-40.451-.037-42.602 5.492-73.926 6.363-36.069 9.732-55.182 24.718-75.942 31.372-43.468 90.072-61.432 108.939-67.205 68.431-20.942 131.03-12.85 170.276-7.393 23.197 3.226 34.393 6.371 181.265 55.108 97.18 32.252 123.84 41.345 170.27 47.044 56.06 6.882 100.01 3.797 113.52 2.688 49.44-4.059 156.74-12.775 216.96-75.27 34.74-36.048 39.8-74.987 40.28-95.431h75.07c-.42 13.938-2.91 34.113-12.82 57.124-16.83 39.12-45.26 63.61-68.14 83.328-12.53 10.793-33.57 27.097-67.35 42.346-36.5 16.486-68.71 22.554-88.79 26.21-49.78 9.066-89.45 7.944-125.42 6.721a777.753 777.753 0 0 1-112.6-12.097c-61.52-11.197-106.32-27.111-151.05-43.012-42.528-15.114-75.878-29.449-135.493-45.027-22.95-5.995-36.874-8.804-54.012-10.081-14.711-1.095-59.514-3.985-107.108 14.785 0 0-52.163 20.572-79.471 62.515-2.307 3.541-4.156 6.922-7.864 13.676 0 0-16.405 29.926-27.098 60.901-19.572 56.708-.247 101.682-29.358 160.338-22.347 45.015-61.071 73.113-77.503 85.163-52.071 38.193-108.345 52.44-149.43 62.85-69.044 17.487-124.823 19.288-217.23 22.279a2618.196 2618.196 0 0 1-84.68 1.357h.01Z" fill="#97BAB3"/><path d="M-19.973 725.816c.458-28.891.925-57.783 1.383-86.674 78.51 2.184 157.385.853 234.449-3.959 144.249-8.999 199.551-24.516 234.623-38.502 38.998-15.551 66.251-33.051 79.031-42.097 11.26-7.977 40.308-30.269 66.682-64.988 14.712-19.361 34.705-51.438 46.423-94.342 2.252-8.253 3.955-15.995 5.227-23.314 4.248-24.335 1.923-32.05 4.092-54.9 1.575-16.532 3.351-33.824 11.929-54.94 6.289-15.484 10.445-25.726 21.66-37.541 23.06-24.301 56.566-34.678 71.735-39.523 34.577-11.055 71.332-13.394 112.372-7.144 34.229 5.208 69.127 15.874 106.075 27.164 24.392 7.453 49.622 15.162 77.352 22.252 57.94 14.805 153.3 34.033 257.49 34.039 49.3 0 100.58-4.307 150.81-15.423 87.17-19.295 140.59-56.99 154.71-66.789C1711.7 112.73 1733.01 29.389 1738.6.013v151.871c-14.29 16.008-35.89 37.957-66.06 61.472-36.05 28.092-103.33 80.169-211.33 105.196-16.85 3.905-78.99 17.487-160.2 14.786-117.32-3.905-226.72-40.216-272.03-55.256-13.9-4.611-41.6-14.12-81.423-23.388-93.953-21.868-129.354-13.091-139.983-10.067-7.726 2.204-33.469 9.805-52.181 28.226-38.943 38.327-3.121 79.82-12.816 149.868-7.342 53.058-36.509 91.419-48.519 106.856-51.532 66.21-130.49 98.267-181.261 118.281-81.632 32.171-152.873 41.15-292.031 57.797A3405.961 3405.961 0 0 1-20 725.816h.027Z" fill="#C6613C"/><path d="M-19.973 658.611v-98.792c93.35 8.475 172.262 7.924 230.686 5.229 147.252-6.788 211.16-29.147 234.623-38.502 35.401-14.12 59.789-26.761 79.032-42.097 12.331-9.826 35.327-30.411 54.369-69.121 34.778-70.679 6.234-99.873 38.449-194.223 7.699-22.561 16.195-40.968 34.788-59.812 8.385-8.502 37.066-35.565 86.968-49.732 35.904-10.195 73.328-11.029 130.911-2.689 110.724 16.036 134.817 42.662 264.567 76.614 63.35 16.58 109.88 28.442 175.77 30.243 42.98 1.176 106.73 2.332 176.68-23.522 17.14-6.331 78.16-30.384 124.07-83.22 38.74-44.578 47.47-87.488 49.87-108.987h77.81c-3.24 29.617-15.6 87.387-71.2 143.221-71.64 71.93-170.39 95.774-211.33 105.196-67.21 15.464-122.48 15.195-160.2 14.786-105.08-1.143-194.07-23.489-242.95-36.049-18.41-4.738-14.02-4.086-46.68-12.769-94.25-25.048-142.257-37.548-185.842-36.291-22.813.658-63.304 2.224-97.039 22.85-19.883 12.157-29.954 26.371-35.703 35.618-40.069 64.45-19.197 126.998-43.026 191.535-30.86 83.597-122.882 133.067-152.882 149.196-56.667 30.464-108.134 41.882-166.613 54.436-74.39 15.968-192.439 33.992-345.128 26.882Z" fill="#584239"/></g><defs><clipPath id="a"><path fill="#fff" d="M0 0h1512v762H0z"/></clipPath></defs></svg>