<svg width="543" height="3069" viewBox="0 0 543 3069" fill="none" xmlns="http://www.w3.org/2000/svg">
<g clip-path="url(#clip0_776_3414)">
<g opacity="0.4" clip-path="url(#clip1_776_3414)">
<path d="M115.974 754.792C116.148 735.814 117.694 716.735 120.941 697.593C131.785 633.614 160.85 574.715 188.964 517.76C210.948 473.231 231.703 431.171 244.562 386.767C281.609 258.87 262.194 114.74 224.95 -1.37125L276.144 -0.902351C315.592 122.142 345.469 259.935 304.834 400.25C290.748 448.852 268.037 494.91 246.053 539.439C218.311 595.662 192.097 648.778 182.433 705.71C166.93 797.22 195.356 887.901 225.47 983.926C234.868 1013.89 244.586 1044.88 252.716 1075.59C290.592 1218.53 296.276 1370.57 269.187 1515.23C260.286 1562.77 247.781 1610.48 235.692 1656.62C207.744 1763.33 181.331 1864.12 194.049 1966.95C201.233 2025.07 221.571 2084.38 241.233 2141.72C273.753 2236.6 307.395 2334.71 286.191 2435.75C275.981 2484.4 253.702 2529.2 232.149 2572.52C213.949 2609.11 196.755 2643.68 186.456 2680.09C152.668 2799.57 203.521 2959.05 242.518 3071.49L178.525 3070.91C148.828 2985.3 111.539 2868.12 112.457 2765.85C112.76 2732.77 116.83 2699.64 126.09 2666.9C137.636 2626.07 156.693 2587.75 175.116 2550.7C196.185 2508.32 216.098 2468.3 225.027 2425.8C243.534 2337.66 213.49 2250.02 181.682 2157.24C161.201 2097.52 140.044 2035.78 132.247 1972.67C118.425 1860.74 147.244 1750.73 175.116 1644.33C186.996 1599.01 199.274 1552.15 207.849 1506.3C233.649 1368.57 228.228 1223.83 192.172 1087.76C184.325 1058.11 174.767 1027.66 165.528 998.213C140.709 919.088 115.214 837.764 115.974 754.808L115.974 754.792Z" fill="#C6613C"/>
<path d="M61.9833 762.172C62.1514 743.817 63.6364 725.427 66.7675 706.987C77.3211 644.766 105.976 586.695 133.68 530.536C154.938 487.473 176.904 442.944 190.065 397.487C228 266.493 193.248 115.837 155.471 -2.00749L188.382 -1.70606C227.279 119.605 259.939 267.041 220.21 404.228C206.445 451.777 183.958 497.325 162.234 541.36C134.064 598.427 107.477 652.324 97.5227 711.03C81.5368 805.368 111.739 901.682 140.947 994.835C150.31 1024.67 159.975 1055.52 168.052 1085.97C213.121 1256.1 217.364 1369.86 184.257 1520.71C180.078 1539.75 174.73 1560.69 168.547 1584.93C154.227 1641.09 134.616 1717.99 116.67 1824.7C109.399 1867.89 102.841 1915.16 109.104 1975.95C114.848 2031.66 130.215 2086.73 154.799 2139.62L155.229 2140.68C163.305 2163.24 171.187 2183.11 178.139 2200.63C199.318 2254 214.617 2292.58 214.401 2350.16C214.259 2383.56 208.378 2418.76 196.821 2454.81L196.426 2456.02C187.859 2482.97 179.843 2497.75 170.544 2514.87C163.55 2527.77 155.627 2542.37 145.614 2565.53C122.094 2620 110.527 2667.08 104.951 2696.97C99.4891 2726.3 93.6104 2773.22 96.5817 2830.12C100.454 2904.49 126.153 2999.37 158.395 3070.68L127.313 3070.39C93.7982 2996.28 69.5679 2908.69 65.5226 2831.31C62.4264 2772.07 68.5794 2723.15 74.272 2692.56C80.0609 2661.43 92.084 2612.46 116.519 2555.89C126.981 2531.68 135.183 2516.53 142.437 2503.17C151.457 2486.53 158.599 2473.38 166.451 2448.67L166.846 2447.41C177.632 2413.73 183.181 2380.91 183.262 2350.02C183.455 2297.07 169.639 2262.23 148.71 2209.5C141.74 2191.93 133.84 2172.03 125.692 2149.29C100.087 2094.05 84.0656 2036.55 78.0709 1978.34C71.5055 1914.57 78.2999 1865.5 85.8416 1820.68C103.961 1712.98 123.706 1635.51 138.139 1578.94C144.265 1554.89 149.557 1534.14 153.659 1515.5C185.849 1368.83 181.671 1258.03 137.698 1092.04C129.78 1062.12 120.186 1031.55 110.912 1001.97C86.395 923.775 61.1845 843.399 61.9286 762.155L61.9833 762.172Z" fill="#97BAB3"/>
<path d="M40.3489 738.56C40.4514 727.375 41.2962 716.996 42.9584 707.201C53.4351 645.395 81.9962 587.532 109.626 531.548C130.94 488.374 152.962 443.717 166.198 398.02C204.359 266.292 169.622 116.021 131.703 -2.24108L155.472 -2.02338C194.244 118.887 228.748 266.708 189.227 403.176C175.519 450.485 153.105 495.906 131.437 539.83C104.423 594.571 76.4762 651.191 66.4631 710.297C56.5856 768.572 78.2033 853.909 117.469 1008.8C123.699 1033.41 130.158 1058.85 137.09 1086.56C140.6 1100.63 143.937 1113.62 147.044 1125.8C165.35 1197.34 176.401 1240.54 178.203 1309.36C180.045 1379.66 170.539 1429.35 153.274 1519.59C148.07 1546.8 142.989 1570.44 138.078 1591.57C129.341 1629.19 126.868 1633.7 116.551 1675.98C105.362 1721.82 98.31 1757.05 95.3366 1772.24C89.6958 1801.17 84.9564 1825.52 81.7823 1850.64C79.2795 1870.35 72.3354 1927.79 80.5154 1992.95C85.8153 2035.19 100.246 2102.63 144.622 2180.78C148.712 2189.35 193.656 2285.32 186.845 2360.17C185.686 2372.9 181.152 2404.78 170.109 2440.61C159.348 2475.48 147.96 2497.09 135.901 2519.98C125.741 2539.23 115.246 2559.14 103.724 2589.31C98.872 2602.04 86.6185 2636.24 77.7072 2678.87C66.9782 2730.29 63.3376 2786.4 67.225 2841.1C72.2765 2912.44 97.2136 3002.71 127.331 3070.44L94.4201 3070.14C63.407 3000.41 48.7124 2915.84 43.5159 2842.36C39.5158 2785.99 43.2637 2728.15 54.3366 2675.11C63.516 2631.16 76.1637 2595.85 81.1845 2582.71C93.1184 2551.45 103.893 2531 114.313 2511.25C126.446 2488.24 136.941 2468.36 147.156 2435.17C147.156 2435.17 159.421 2395.64 163.123 2358.86C168.294 2307.35 147.411 2257.54 117.152 2185.36C93.5316 2129.02 83.3702 2118.48 70.6405 2072.91C67.7189 2062.48 59.4631 2031.55 55.0518 1990.13C49.1586 1934.81 53.2919 1892.79 58.1212 1848.65C66.6832 1770.3 79.0807 1724.37 93.4096 1671.19C104.312 1630.8 116.653 1585.02 129.827 1516.16C148.13 1420.47 156.149 1375.41 154.427 1309.84C152.68 1243.08 141.823 1200.65 123.835 1130.36C120.71 1118.13 117.373 1105.11 113.845 1091.01C106.931 1063.32 100.472 1037.9 94.2423 1013.31C60.6594 880.778 39.7827 798.392 40.3302 738.608L40.3489 738.56Z" fill="#F2E291"/>
<path d="M92.5134 758.866C92.6828 740.368 94.1877 721.801 97.3385 703.202C107.951 640.581 136.717 582.304 164.514 525.954C185.716 483.002 207.626 438.601 220.712 393.383C258.457 263.139 226.035 115.737 188.382 -1.706L224.949 -1.37107C263.989 120.342 297.892 263.804 257.956 401.725C244.115 449.529 221.572 495.189 199.792 539.352C171.733 596.227 145.222 649.933 135.344 708.223C119.456 801.907 149.57 897.9 178.671 990.731C188.033 1020.6 197.716 1051.48 205.793 1081.98C243.315 1223.62 248.957 1374.24 222.118 1517.58C213.274 1564.79 200.826 1612.34 188.775 1658.33C161.831 1761.18 133.96 1867.54 146.899 1972.1C159.819 2076.71 186.725 2141.65 210.446 2198.97C241.466 2273.91 265.975 2333.1 239.008 2438.55C226.662 2486.8 208.725 2520.69 191.383 2553.45C166.971 2599.54 143.935 2643.09 134.999 2726.27C124.485 2824.18 141.515 2905.28 152.598 2944.91C163.522 2984 183.193 3034.38 202.312 3071.13L158.431 3070.72C138.324 3032.08 126.806 2993.95 115.297 2952.83C103.647 2911.15 85.7227 2825.88 96.7763 2723.04C106.313 2634.12 131.842 2585.89 156.533 2539.26C173.801 2506.66 190.1 2475.87 201.536 2431.14C226.057 2335.24 204.375 2282.86 174.357 2210.36C151.1 2154.2 122.155 2084.28 108.723 1975.64C95.1046 1865.44 123.697 1756.3 151.36 1650.76C163.277 1605.29 175.594 1558.25 184.245 1512.08C210.295 1373.03 204.813 1226.9 168.404 1089.51C160.504 1059.65 150.91 1029.11 141.654 999.562C117.065 921.144 91.7836 840.542 92.5315 758.883L92.5134 758.866Z" fill="#584239"/>
</g>
</g>
<defs>
<clipPath id="clip0_776_3414">
<rect width="543" height="3069" fill="white"/>
</clipPath>
<clipPath id="clip1_776_3414">
<rect width="3072.56" height="279.496" fill="white" transform="translate(326.625 -0.439941) rotate(90.5248)"/>
</clipPath>
</defs>
</svg>
