<svg width="451" height="634" fill="none" xmlns="http://www.w3.org/2000/svg"><g opacity=".4"><path d="M404.686 163.027c26.073-14.394 66.793-30.524 66.793-30.524 19.612-7.758 44.604-17.11 74.251-26.925l16.289 17.803c-34.803 8.146-62.693 17.364-81.932 24.385-39.266 14.333-73.381 27.077-104.926 52.79-13.029 10.619-30.532 25.195-36.706 45.435-4.584 15.027-.799 26.213 2.504 35.968 4.873 14.39 15.834 27.473 37.758 53.641 5.357 6.393 7.784 9.031 11.68 14.534 4.374 6.188 13.508 19.098 17.512 33.451 1.971 7.068 7.708 29.255-6.827 55.995-13.49 24.816-37.334 40.492-50.779 49.144-38.425 24.734-78.823 33.679-117.833 42.317-42.635 9.442-51.248 6.414-93.528 18.229-35.533 9.93-59.368 20.433-64.409 22.68-30.558 13.619-62.346 27.79-82.068 53.833-5.664 7.483-16.412 22.08-14.82 39.751 1.637 18.1 15.248 28.706 20.752 32.487a94380.156 94380.156 0 0 1-29.833 16.173c-16.222-14.838-18.647-29.983-19.06-37.087-1.544-26.576 18.756-49.13 29.976-61.6 13.307-14.784 27.086-24.279 35.706-30.548 29.896-21.746 58.842-32.107 86.832-42.128 29.077-10.409 45.357-13.579 65.965-17.591 16.758-3.263 35.749-6.964 67.711-15.69 85.794-23.43 104.882-39.729 112.07-45.866 17.72-15.129 26.173-30.757 28.346-35.184 3.661-7.474 9.453-22.567 7.136-39.707-1.541-11.386-5.682-16.371-14.76-27.29-5.624-6.769-13.331-16.033-22.855-30.007-15.117-22.172-24.241-35.559-26.684-55.467-1.294-10.564-3.713-30.226 10.751-53.115 10.982-17.381 26.08-27.994 43.562-40.28 10.643-7.479 21.115-13.915 31.439-19.614l-.013.007Z" fill="#F2E291"/><path d="M465.667 84.017c5.811-3.208 13.614-7.837 24.759-13.36a416.957 416.957 0 0 1 15.877-7.458c13.14 14.13 26.282 28.253 39.423 42.382a928.81 928.81 0 0 0-54.802 19.292c-24.602 9.539-48.354 18.746-76.284 33.994-26.695 14.576-51.18 27.947-71.497 51.245-6.443 7.39-18.679 21.704-23.373 40.917-3.341 13.678-1.377 23.759.204 31.383 3.701 17.846 12.401 29.823 26.105 48.28 12.869 17.332 15.662 17.09 24.569 31.095 10.258 16.126 15.695 24.671 16.283 36.887 1.233 25.579-19.73 48.003-26.468 55.211-24.438 26.141-56.8 39.119-77.229 47.101-12.076 4.718-18.488 6.358-105.339 24.863-57.472 12.245-73.327 15.506-97.22 25.253-28.848 11.769-48.35 24.399-54.283 28.344-21.723 14.445-68.9 45.755-74.223 86.447-3.074 23.473 8.853 40.412 16.133 48.743l-35.244 19.457c-4.921-5.704-11.16-14.447-14.96-26.25-6.462-20.065-2.11-37.262 1.394-51.108 1.917-7.578 5.81-19.577 16.066-34.451 11.087-16.079 23.98-26.862 32.067-33.536 20.04-16.539 39.08-26.373 56.416-35.205 12.5-6.369 32.037-15.559 57.308-24.33 32.995-11.452 59.869-16.674 86.713-21.888 25.515-4.956 46.437-7.846 80.146-17.046 12.977-3.542 20.546-6.024 29.061-9.953 7.309-3.374 29.405-13.826 44.858-33.696 0 0 16.936-21.777 14.355-45.69-.218-2.019-.591-3.855-1.33-7.527 0 0-3.288-16.264-9.643-31.467-11.635-27.834-37.223-40.876-45.096-71.964-6.038-23.859 1.824-45.174 5.114-54.27 10.422-28.825 31.611-49.13 47.078-63.957 25.994-24.914 51.521-40.095 93.807-65.246a1406.022 1406.022 0 0 1 39.259-22.494l-.004.002Z" fill="#97BAB3"/><path d="M455.646 7.127c10.395 11.714 20.785 23.431 31.18 35.146-37.662 19.473-74.206 40.451-108.62 62.357-64.42 41-84.686 61.562-96.016 76.266-12.599 16.35-18.968 30.438-21.646 37.381-2.358 6.12-7.809 22.596-7.443 43.367.204 11.584 2.596 29.641 12.85 49.899a122.78 122.78 0 0 0 6.107 10.712c6.942 10.868 10.867 13.362 18.239 23.095 5.332 7.044 10.848 14.445 14.575 25.143 2.733 7.845 4.543 13.033 3.617 20.682-1.903 15.731-13.824 28.58-19.166 34.456-12.174 13.4-28.572 23.865-50.135 31.994-17.984 6.782-38.284 11.546-59.778 16.591-14.191 3.332-28.867 6.778-44.49 11.119-32.639 9.076-84.468 26.074-133.387 53.076-23.15 12.78-45.641 27.799-65.143 45.28-33.84 30.338-45.081 59.316-48.111 66.907-20.512 51.44.087 90.414 8.253 103.652l-55.771-60.956c.831-10.129 2.91-24.536 8.441-41.795 6.61-20.619 19.072-58.959 60.586-96.996 6.48-5.936 30.667-27.494 69.787-47.459 56.514-28.84 121.21-42.622 148.008-48.33 8.218-1.752 24.716-5.115 46.816-11.717 52.142-15.575 65.539-28.274 69.419-32.242 2.818-2.888 12.113-12.611 14.133-24.854 4.21-25.477-27.846-32.846-49.017-63.474-16.038-23.199-16.431-46.155-16.461-55.464-.12-39.931 25.179-73.263 41.667-94.456 26.511-34.071 56.662-56.14 115.884-98.89 41.441-29.915 78.206-53.593 105.635-70.498l-.013.008Z" fill="#C6613C"/><path d="m480.326 34.1 36.278 39.652c-46.939 20.794-83.786 41.469-110.227 57.694-66.642 40.891-88.436 66.43-96.016 76.266-11.436 14.843-18.244 26.238-21.646 37.381-2.182 7.14-5.419 21.362-.144 41.835 9.627 37.382 33.749 41.701 53.271 87.92 4.671 11.05 7.442 20.641 5.632 33.023-.815 5.586-4.342 23.882-22.569 42.503-13.113 13.398-30.377 23.432-60.475 35.01-57.873 22.263-78.964 17.821-152.348 37.824-35.831 9.766-62.034 17.066-93.629 33.42-20.611 10.668-50.968 26.729-74.315 55.236-5.721 6.983-25.54 32.454-27.691 65.561-1.816 27.931 9.842 47.417 16.61 56.668l-36.533 20.169c-9.355-12.728-24.767-39.118-19.164-75.94 7.218-47.437 44.825-82.603 60.586-96.996 25.878-23.628 51.928-37.847 69.787-47.459 49.753-26.776 99.74-40.874 127.3-48.501 10.388-2.872 8.085-1.995 26.609-6.976 53.447-14.375 80.577-21.801 100.578-33.602 10.469-6.178 28.904-17.301 37.169-34.323 4.871-10.034 4.379-18.349 3.682-23.55-4.855-36.254-37.623-55.949-50.135-88.028-16.21-41.552 8.828-85.259 16.99-99.508 15.418-26.915 35.388-44.838 58.234-65.034 29.063-25.691 77.867-63.522 152.166-100.245Z" fill="#584239"/></g></svg>